HIERARCHY
ROOT Hips
{
  OFFSET -187.679 86.5976 -156.378
  CHANNELS 6 Xposition Yposition Zposition Zrotation Xrotation Yrotation
  JOINT LeftUpLeg
  {
    OFFSET 8.64259 1.95398 -2.38835
    CHANNELS 3 Zrotation Xrotation Yrotation
    JOINT LeftLeg
    {
      OFFSET 43.7702 0 0
      CHANNELS 3 Zrotation Xrotation Yrotation
      JOINT LeftFoot
      {
        OFFSET 40.6238 0 0
        CHANNELS 3 Zrotation Xrotation Yrotation
        JOINT LeftToeBase
        {
          OFFSET 12.7242 0 0
          CHANNELS 3 Zrotation Xrotation Yrotation
          End Site
          {
            OFFSET 0 0 0
          }
        }
      }
    }
  }
  JOINT RightUpLeg
  {
    OFFSET -8.2249 1.95398 -2.59336
    CHANNELS 3 Zrotation Xrotation Yrotation
    JOINT RightLeg
    {
      OFFSET 43.5653 0 0
      CHANNELS 3 Zrotation Xrotation Yrotation
      JOINT RightFoot
      {
        OFFSET 40.6238 0 0
        CHANNELS 3 Zrotation Xrotation Yrotation
        JOINT RightToeBase
        {
          OFFSET 12.7242 0 0
          CHANNELS 3 Zrotation Xrotation Yrotation
          End Site
          {
            OFFSET 0 0 0
          }
        }
      }
    }
  }
  JOINT Spine
  {
    OFFSET 0.165834 0.87714 6.61349
    CHANNELS 3 Zrotation Xrotation Yrotation
    JOINT Spine1
    {
      OFFSET 7.38963 1.71661e-005 0
      CHANNELS 3 Zrotation Xrotation Yrotation
      JOINT Spine2
      {
        OFFSET 11.9445 1.14441e-005 0
        CHANNELS 3 Zrotation Xrotation Yrotation
        JOINT Spine3
        {
          OFFSET 14.7254 4.19617e-005 0
          CHANNELS 3 Zrotation Xrotation Yrotation
          JOINT Spine4
          {
            OFFSET 10.9679 0 0
            CHANNELS 3 Zrotation Xrotation Yrotation
            JOINT RightShoulder
            {
              OFFSET 2.46616 -1.6653 3.69651
              CHANNELS 3 Zrotation Xrotation Yrotation
              JOINT RightArm
              {
                OFFSET 13.0012 0 0
                CHANNELS 3 Zrotation Xrotation Yrotation
                JOINT RightForeArm
                {
                  OFFSET 28.7848 1.52588e-005 0
                  CHANNELS 3 Zrotation Xrotation Yrotation
                  JOINT RightHand
                  {
                    OFFSET 26.5688 1.52588e-005 0
                    CHANNELS 3 Zrotation Xrotation Yrotation
                    End Site
                    {
                      OFFSET 0 0 0
                    }
                  }
                }
              }
            }
            JOINT LeftShoulder
            {
              OFFSET 2.38034 -1.29275 -3.7523
              CHANNELS 3 Zrotation Xrotation Yrotation
              JOINT LeftArm
              {
                OFFSET 16.3182 6.10352e-005 0
                CHANNELS 3 Zrotation Xrotation Yrotation
                JOINT LeftForeArm
                {
                  OFFSET 27.0901 0 0
                  CHANNELS 3 Zrotation Xrotation Yrotation
                  JOINT LeftHand
                  {
                    OFFSET 24.5451 1.52588e-005 0
                    CHANNELS 3 Zrotation Xrotation Yrotation
                    End Site
                    {
                      OFFSET 0 0 0
                    }
                  }
                }
              }
            }
            JOINT Neck
            {
              OFFSET 5.0226 -0.0266342 0
              CHANNELS 3 Zrotation Xrotation Yrotation
              JOINT Head
              {
                OFFSET 6.69363 2.86102e-005 0
                CHANNELS 3 Zrotation Xrotation Yrotation
                End Site
                {
                  OFFSET 0 0 0
                }
              }
            }
          }
        }
      }
    }
  }
}
MOTION
Frames:	14
Frame Time:	0.0416667
22.7645 97.7047 -76.5149 115.121 -89.1517 121.313 -178.836 30.9776 88.071 -25.4139 21.4872 3.22847 63.8328 2.93914 1.46173 19.5702 -2.88747 -1.82007 166.854 -23.641 79.2471 -33.334 -14.4435 -3.44596 58.8772 -0.375344 -0.236609 25.4491 -2.17669 5.19343 2.61464 7.4559 -90.0258 11.9823 5.18661 -0.612007 0.321482 5.15465 -0.840302 -22.2952 5.13004 0.979327 -2.28256 5.13005 0.97932 90.6565 -39.4908 -102.233 16.1788 -1.74444 -25.5913 -25.3903 19.0822 -125.918 -10.3069 -0.834798 4.60721 -86.2656 -31.2383 80.99 -43.0783 28.1127 51.7684 50.266 -35.1567 -99.8909 -3.51781 -0.0505665 -7.80723 25.4644 -16.8313 -16.2566 -0.827175 -10.2476 10.1286 
24.1826 97.0116 -67.8912 157.041 -88.256 166.205 -178.022 30.2835 90.2209 -27.335 20.1796 3.64199 62.8637 2.231 1.92243 15.0456 -5.9474 0.928259 168.312 -23.9972 81.8238 -40.0519 -5.01906 -2.78303 61.5543 -1.72185 1.00292 26.993 -1.64016 4.48321 2.22277 7.49279 -90.8302 11.929 4.02876 -2.08991 0.262295 3.93289 -2.26537 -22.3202 4.47029 -0.780509 -2.30754 4.47028 -0.780522 90.1056 -35.6336 -104.395 19.0627 -11.3337 -24.3028 -25.6549 19.277 -120.262 -10.4904 -0.845942 4.56008 -85.602 -39.0759 83.7917 -39.8742 23.7102 48.891 53.4262 -34.4902 -99.2106 -3.60603 -0.054365 -7.1945 26.7687 -11.7697 -8.47242 -3.14885 -8.17327 5.8123 
25.7466 95.7986 -59.3841 161.015 -87.497 171.267 -175.792 31.5008 90.1109 -36.8909 18.8518 2.06135 58.8852 0.43081 6.62164 16.5787 -1.79641 -6.67092 169.107 -20.3668 82.8787 -51.5613 3.56295 -2.89946 65.661 -3.2803 -0.720919 24.4944 -1.95903 3.9278 2.2719 7.52207 -90.5277 11.8628 4.2696 -1.50947 0.19779 4.19903 -1.6962 -22.3933 4.52549 -0.154001 -2.38061 4.52549 -0.154004 87.9401 -44.0283 -105.464 17.8948 -14.1597 -18.7916 -27.2466 19.4316 -116.701 -8.82379 -0.545309 2.25717 -86.6707 -36.0632 81.3297 -36.3246 18.9681 42.6075 53.2088 -32.4765 -100.797 -1.62002 -0.0999772 -5.99402 25.7442 -13.2799 -15.4206 -1.98318 -7.14837 9.01478 
27.3961 94.5332 -51.3927 151.361 -87.0138 160.052 -172.934 32.6011 87.3979 -51.0477 19.1647 0.0926392 69.5017 6.08052 7.6033 8.5302 -4.18245 -7.71528 169.942 -12.6325 82.6135 -66.2462 12.01 -3.88236 69.5585 -4.94464 -2.6189 18.7357 -3.36868 4.60777 1.82362 7.60956 -90.2391 11.6734 3.51523 -0.844539 0.00686484 3.47465 -0.998618 -22.5667 3.60633 0.252363 -2.55402 3.60633 0.252361 86.0787 -46.9619 -107.524 19.0759 -18.3554 -13.4343 -33.5537 20.2127 -109.488 -4.99385 -0.252309 1.13299 -87.7477 -39.5202 80.2304 -29.4571 12.1005 35.4319 53.5015 -31.7361 -104.167 -1.993 -0.0902222 -5.39666 24.4923 -11.2653 -16.9681 -0.614182 -4.74009 8.29371 
29.3905 92.7521 -43.9159 139.561 -85.1672 142.738 -171.181 27.6862 81.4031 -55.4889 18.8158 -1.44242 75.5292 9.58964 6.7747 10.5501 -3.64509 -7.34109 170.857 -3.89302 79.4147 -81.8713 17.7674 -5.7268 74.8543 -6.61714 -2.97657 17.1854 -3.43311 3.97 1.17407 8.0373 -89.4931 10.7943 2.5719 0.774284 -0.874186 2.60348 0.66026 -23.4238 2.22023 1.51172 -3.41116 2.22023 1.51171 83.8339 -50.2302 -109.876 19.925 -17.7935 -7.7396 -36.2665 18.6571 -104.394 -6.26416 -0.452102 3.60573 -88.8104 -43.247 79.3059 -21.9197 6.04063 23.0991 50.0876 -30.483 -108.581 -4.34062 -0.0729599 -4.96884 26.6206 -8.95485 -16.6022 -0.201528 -2.33782 4.96051 
31.5842 91.2634 -36.8626 130.667 -84.0572 130.085 -170.166 22.3951 77.3518 -57.2284 20.1017 -2.97414 79.4856 12.7902 8.83951 12.3097 -1.26472 -10.9609 175.611 6.13418 78.6444 -95.4391 17.1495 -6.7154 77.9715 -7.67645 -3.23167 18.0656 -3.34379 4.19801 0.597896 8.25441 -88.8957 10.3456 1.69661 2.0462 -1.3257 1.78501 1.96958 -23.8517 1.00342 2.4613 -3.83908 1.00341 2.46129 83.0078 -51.2522 -110.754 24.1238 -14.5213 0.709781 -37.4536 18.1418 -104.147 -4.90046 -0.282587 1.93523 -88.7986 -43.4745 79.3793 -17.2095 1.15468 8.56135 44.2127 -28.3646 -113.039 -3.89296 -0.0886022 -4.04752 28.8189 -6.38253 -16.5814 -0.735539 0.421613 3.38864 
33.4012 90.548 -29.9248 117.342 -84.5409 117.394 -169.899 18.9768 77.9941 -58.9439 19.506 -3.15792 86.0657 14.856 4.87009 6.99015 -3.7302 -9.41738 -177.29 17.7612 82.3308 -104.196 16.6576 -6.44448 78.7941 -8.04574 -2.55164 18.1589 -3.74324 5.26018 0.213995 8.17826 -88.8569 10.5039 0.950994 2.18779 -1.16842 1.04634 2.14383 -23.6893 0.249715 2.37235 -3.67666 0.249716 2.37235 84.9401 -49.9293 -108.315 28.7521 -11.7668 9.83333 -35.4681 18.236 -106.81 -5.98867 -0.384443 2.68801 -88.7789 -42.6402 79.2221 -14.2339 -4.79146 -5.18503 41.1392 -26.9846 -116.448 -4.77264 -0.0644887 -5.36273 28.2848 -2.39778 -15.3225 0.908254 3.66775 2.2805 
35.1463 90.2003 -22.5494 94.7288 -82.001 97.7823 -170.03 14.7399 81.3003 -58.5429 21.1 -2.09344 89.1265 15.7889 3.13602 9.06503 -2.1385 -11.1651 -174.988 28.7178 87.7524 -106.4 19.9591 -5.69684 80.6156 -8.2361 -2.25695 19.7069 -3.40367 5.22911 -0.510334 8.0258 -89.1256 10.823 -0.612233 1.79776 -0.849215 -0.532537 1.82295 -23.3771 -1.12415 1.53076 -3.36442 -1.12415 1.53076 86.8238 -49.1058 -105.713 30.7501 -11.3566 18.0021 -34.4276 19.4999 -109.204 -4.63709 -0.252472 1.58728 -88.3326 -40.752 79.5279 -11.0249 -10.8979 -17.3517 36.8274 -24.8514 -119.717 -2.43585 -0.0805972 -5.25228 28.0863 1.20546 -15.3047 -0.119969 7.04937 2.20727 
37.7408 91.1074 -14.5558 90.2813 -76.5304 95.8931 -171.114 8.1729 84.592 -55.6595 25.0051 0.657992 86.2429 14.6736 3.82878 12.1195 -0.680748 -12.2374 -175.953 35.3708 90.9511 -101.703 23.9473 -5.34604 83.3086 -8.21712 -0.479684 20.8967 -2.95667 4.7213 -1.50562 8.06213 -89.4664 10.766 -2.75191 1.31611 -0.902803 -2.69131 1.43599 -23.4604 -3.02012 0.427556 -3.44773 -3.02011 0.427546 87.0781 -48.7676 -105.423 29.5341 -10.2799 26.6313 -35.5626 21.1463 -111.531 -3.31969 -0.154454 0.437809 -87.9301 -36.2211 79.1286 -8.84431 -16.0316 -24.2744 30.9775 -21.538 -122.791 -1.46243 -0.0963376 -4.0192 27.5186 5.35759 -14.8612 0.12176 10.7261 1.60135 
40.9777 92.661 -5.9812 89.8839 -70.9687 97.7498 -171.838 -0.184496 87.3161 -49.7668 29.4412 4.34371 77.5086 10.8809 6.27374 22.3725 4.28229 -18.2766 -176.893 38.2336 93.0659 -92.8977 23.7609 -5.09483 84.0307 -7.77898 -1.08066 21.1702 -2.85189 4.58709 -2.42218 8.29958 -89.9882 10.2908 -4.82033 0.438995 -1.37133 -4.79633 0.651197 -23.9764 -4.7289 -1.03337 -3.96378 -4.7289 -1.03337 89.1666 -46.169 -102.883 28.2182 -9.23146 32.3711 -36.932 21.9513 -112.637 -2.7799 -0.113403 -0.303298 -87.1285 -30.6966 79.1824 -10.6702 -20.2671 -28.7935 31.6161 -21.976 -124.546 1.93417 0.115794 1.19527 29.2321 9.1258 -12.7058 -0.156269 13.6381 1.98816 
44.5745 94.5921 2.98952 88.9308 -67.3269 99.6548 -171.204 -9.47226 90.3583 -40.1591 35.7331 8.07498 65.9897 4.76395 6.72039 34.4363 6.75956 -18.6785 -177.388 39.3689 95.0964 -80.7166 22.9019 -4.44994 81.8822 -6.64552 -0.129248 19.5365 -2.74707 3.43197 -3.02741 8.51232 -90.647 9.83686 -6.32764 -0.774991 -1.81866 -6.35559 -0.494619 -24.4608 -5.80122 -2.647 -4.44815 -5.80121 -2.647 90.6475 -43.8739 -101.085 25.8725 -8.54411 36.8766 -37.1739 22.4308 -114.004 -2.45012 -0.0756102 -1.81438 -86.3894 -27.0878 79.6393 -11.3502 -22.528 -31.1256 24.6723 -17.3837 -127.021 2.31868 0.00223862 -2.04504 32.0578 12.4047 -9.30946 -2.23176 15.5739 2.61805 
48.2747 96.0627 12.0229 84.8567 -66.307 98.6402 -169.504 -15.0634 95.5645 -31.9883 39.4087 10.3946 56.7447 -0.456059 4.1399 29.4881 3.94257 -12.6175 -176.493 40.0278 96.33 -66.6215 16.5435 -4.08695 79.3607 -6.28845 0.0745057 22.2043 -2.17926 3.2763 -3.16637 8.45197 -91.334 9.9146 -6.91641 -2.08408 -1.73903 -7.0014 -1.77633 -24.3781 -5.96976 -4.07195 -4.3655 -5.96976 -4.07195 91.8591 -41.0502 -99.7531 24.215 -7.47452 41.6227 -36.5075 22.4658 -115.474 -3.26871 -0.0917934 -2.08704 -86.7316 -24.6667 78.2652 -8.47245 -24.8707 -31.2926 20.7361 -14.4078 -128.415 3.7224 0.0456257 -1.698 32.8784 15.1983 -5.14323 -4.1482 16.506 2.68315 
51.9098 96.6942 20.7037 78.7209 -65.9829 93.6846 -170.21 -17.87 95.3808 -28.8578 36.0574 11.503 54.381 -1.59142 2.94874 19.5699 -1.72396 -4.57097 -175.47 40.7752 95.2803 -52.4648 6.42952 -4.18738 75.1601 -5.63908 0.57286 24.3136 -1.51566 2.50888 -3.10098 8.11988 -91.6843 10.5544 -6.94971 -2.72427 -1.10011 -7.06281 -2.41454 -23.7243 -5.8097 -4.69114 -3.7117 -5.8097 -4.69114 93.3234 -38.471 -97.8034 25.9925 -8.35444 45.5285 -35.7646 22.9962 -115.97 -3.71692 -0.0936907 -2.41979 -85.1349 -20.8009 80.5147 -10.5781 -19.5706 -35.292 22.0951 -16.3381 -127.32 3.35094 0.0365254 -1.72132 31.5104 16.5728 -2.48148 -5.04446 16.6922 2.92202 
55.5872 96.7054 29.5277 77.8693 -64.7613 92.2479 -170.712 -20.2089 94.3085 -31.4646 28.463 11.6078 56.7021 -0.204948 5.658 21.6084 0.30379 -7.98413 -175.193 38.2076 93.5361 -39.115 -0.364985 -4.05831 70.6623 -4.85368 1.57931 27.3514 -0.663031 1.47985 -3.1407 8.02061 -91.7803 10.747 -7.07456 -2.88842 -0.907124 -7.19475 -2.57299 -23.5315 -5.87955 -4.88512 -3.51888 -5.87956 -4.88514 93.4543 -37.2525 -97.849 26.5257 -7.59276 47.6798 -36.3563 23.7006 -116.831 -4.46667 -0.119128 -2.15119 -84.5228 -19.6688 81.5742 -9.88463 -16.2011 -37.6699 22.1222 -16.8512 -126.226 3.26872 0.0786029 -0.832255 30.1543 17.2693 -1.49797 -4.55232 16.9766 3.29222 
